PathFileType	4	(X/Y/Z)	pose2sim_0-766.trc
DataRate	CameraRate	NumFrames	NumMarkers	Units	OrigDataRate	OrigDataStartFrame	OrigNumFrames
50	50	8	22	m	50	383	767
Frame#	Time	Hip			RHip			RKnee			RAnkle			RBigToe			RSmallToe			RHeel			LHip			LKnee			LAnkle			LBigToe			LSmallToe			LHeel			Neck			Head			Nose			RShoulder			RElbow			RWrist			LShoulder			LElbow			LWrist			
		X1	Y1	Z1	X2	Y2	Z2	X3	Y3	Z3	X4	Y4	Z4	X5	Y5	Z5	X6	Y6	Z6	X7	Y7	Z7	X8	Y8	Z8	X9	Y9	Z9	X10	Y10	Z10	X11	Y11	Z11	X12	Y12	Z12	X13	Y13	Z13	X14	Y14	Z14	X15	Y15	Z15	X16	Y16	Z16	X17	Y17	Z17	X18	Y18	Z18	X19	Y19	Z19	X20	Y20	Z20	X21	Y21	Z21	X22	Y22	Z22	
383	7.66	0.12368964753176896	0.845939511725384	-0.030622135127671753	0.02425229650461236	0.8310112920035823	-0.025660534879195517	0.004665301692502103	0.45261129403818395	-0.06811195615112477	-0.00607424709432442	0.07980049617314804	-0.08555667500506373	-0.03518454045560351	0.03682396282541594	0.07090226446013397	-0.072845832325016	0.035408148863465425	0.0127437322927003	0.007010382323304656	0.04245640861437464	-0.1127186669550069	0.22441564160254548	0.8307171989051703	-0.035590248381041294	0.23771780549240906	0.4543881558776643	-0.07346938954914865	0.2531205137009351	0.08402712809406038	-0.08545783369629553	0.29206768199594285	0.03952329642264963	0.06714747622699731	0.3262097706003098	0.04336252625020422	0.022310607222675197	0.2405447574433508	0.04334566548853206	-0.11459554565611561	0.12899345364500792	1.3975180344057168	-0.023223679423145308	0.13969543365399276	1.6233882744684573	0.006879128772101269	0.12150321397207	1.5114679018487642	0.09499876184850181	-0.020502796172263343	1.3123611155990944	-0.027009308363047744	-0.1226050178962069	1.0990344676717536	0.07284144031164935	-0.1122061910302019	1.305336704621545	0.08508011407025166	0.27626036838501045	1.303920334543028	-0.049813283981834884	0.3709218399985899	1.0966858834229458	0.028467824621299296	0.37632630028256875	1.2856938988074629	0.08572388301587616
384	7.68	0.12505242819263648	0.8555513281767603	-0.025691926330808818	0.02807536852979307	0.8398537752906129	-0.023263320436659907	0.0067740530797964615	0.4548212973859467	-0.06720416497896857	-0.0036633347677490955	0.07625769937334448	-0.09272987472123533	-0.034847204151349814	0.029569789798034457	0.08492330714137515	-0.07179688140770782	0.03334375840507687	0.034331277171635394	0.006678928238809277	0.0301295675952068	-0.12053452857693116	0.22334370014701008	0.8390970908765808	-0.03282715330454325	0.23548691520912546	0.4576573707021335	-0.07122091467813216	0.2541271622593219	0.08240295662613688	-0.08494914430754046	0.28551463303436325	0.030641418743543623	0.0742489958419368	0.3186605252023255	0.033890720528639354	0.02193623698000995	0.23938487634283656	0.0378213113086455	-0.10184441941044942	0.13130041504700532	1.397005737915071	-0.02228533544553091	0.14549080365007286	1.6251737669851292	-0.0069157334132664335	0.12224255688700675	1.5130570343053327	0.10118993074916166	-0.021912825511941264	1.3104807803460667	-0.03327654342426704	-0.12152205998057922	1.094438444442075	0.0745338302652516	-0.11524368264694063	1.2982505971946021	0.09778371562162239	0.2748531552686974	1.3041260308800746	-0.05044387519944993	0.36621127316393054	1.0952249496050614	0.02677814827426675	0.3671107301384845	1.2854498546078121	0.062034334105229856
385	7.7	0.12330907523743219	0.8441225352387745	-0.032248504198037056	0.025177608876261574	0.8317566078240859	-0.025241442625802933	0.006770092236671314	0.453126586734546	-0.07005782810702424	-0.0027218566075029	0.08079646000201889	-0.08282337693199138	-0.030791326460047154	0.03725324820662276	0.06534506850101302	-0.06927982320210954	0.03902388605086814	0.012391190320160367	0.00739527003228831	0.041039692210168316	-0.11430635274046372	0.22487920787873852	0.8303891071435164	-0.04004362431848613	0.23785057054564648	0.45339199804893343	-0.07300602639154072	0.2540923024128151	0.08422616013556396	-0.0858455022928977	0.29319442900620457	0.038168338541656965	0.06536616122553028	0.326413246038531	0.04225227820879162	0.020932983799375037	0.24140681881267645	0.04231390355825792	-0.11453503857449879	0.13129146283767096	1.397182425302561	-0.023643116151083075	0.1406875164366246	1.623638807196778	0.0034300455900457523	0.1283277786683779	1.5109674196628164	0.09510913307085228	-0.0214841701800205	1.3139520486812781	-0.03350580576410123	-0.12271957621051209	1.1002764180458238	0.07097050578813131	-0.1150084999268787	1.3036040581839157	0.0910553696980534	0.2780125669524707	1.3044759127354495	-0.05829090361083625	0.3741249045618568	1.0979747185723514	0.03558338686114357	0.3820160808847911	1.2864552653295955	0.08311564683360781
386	7.72	0.12409231055504119	0.8458316289719984	-0.03312031398344273	0.02717329674035271	0.8317429600419496	-0.029355378420007783	0.005121713102007273	0.45324527414657173	-0.07039213823588113	-0.005428424576701272	0.08283896953518356	-0.08857905058254295	-0.03478708662698669	0.03816519188086061	0.0692902498260332	-0.07214346001239477	0.03960360665258302	0.0125929968029073	0.0059692655692759455	0.044068030985690676	-0.11601827088152253	0.22487328123856223	0.8329185873783367	-0.04055424497494083	0.2380384521224358	0.4535124814292804	-0.0743394889732218	0.25369441557437056	0.08541911422340792	-0.08662077554117675	0.2928272989676473	0.03953109525857377	0.06439717584036268	0.3258400802355857	0.04325060896660118	0.021654416174731794	0.24077830783740237	0.04320646114894424	-0.11389163638228315	0.1305746673430133	1.3951406043764496	-0.028006025639158084	0.14006769798073723	1.6233607251923714	0.005365265270333294	0.12324551506033839	1.5112803066315112	0.09700710533767871	-0.02181465767853289	1.3122696674269476	-0.030774879426044073	-0.12076012963023657	1.1011207901127227	0.07465527744703965	-0.119231432219773	1.305609676719966	0.09461827091010148	0.27949245462709643	1.3036944587244426	-0.05125173168253752	0.37406392411914247	1.100702237848512	0.03854044213226983	0.3821557669166337	1.2897053398440221	0.08854124710643912
387	7.74	0.1248115966250151	0.8453944919938969	-0.03331857048519588	0.026835771059545117	0.8330804836490547	-0.031067085919565137	0.007260472625128472	0.4526983166806118	-0.07100996009074131	-0.0035965794772013096	0.08034228163631278	-0.08789600065993777	-0.032484788623995675	0.03712349295155306	0.06817166621737597	-0.07133497642344744	0.03860276931942906	0.009078524567666578	0.009096125483693044	0.03923796529802468	-0.11375155878141494	0.2268357494990255	0.8305014121955118	-0.042474962467238135	0.2399944651629044	0.45441911722196543	-0.07592672887254484	0.2552576039716009	0.08447212168055396	-0.08717752076492837	0.2946272927690414	0.039816394947556226	0.06899813522557062	0.32915536769566384	0.042206651998093786	0.025247649622482722	0.2415488262798925	0.04069275246361015	-0.11177822675337634	0.1324699204580228	1.3972590295193719	-0.029046921046390357	0.14331724579742075	1.6227805107885787	0.0011633263982643769	0.12764466071203215	1.5095358825316019	0.09668327394241326	-0.018371609286902874	1.3148618175267732	-0.034751103836108584	-0.12241445545045651	1.1019355533749322	0.07406639129659798	-0.12080370376797663	1.307518667746745	0.08942993963217365	0.2783262089711148	1.304065874941444	-0.057355701286627224	0.37037165596539184	1.0975597605564227	0.03443939853219648	0.381947919946788	1.2861005140322277	0.09456686722802299
388	7.76	0.12550741661129802	0.853058367455694	-0.027739220746497515	0.02716459061588713	0.8387723870561866	-0.02671394056575662	0.007167282473379654	0.4536663031447095	-0.06902021172399579	-0.0033507022815716992	0.07475091942542152	-0.09243814376191563	-0.03566823246220364	0.030393015929739857	0.08437479590297658	-0.07026124978403207	0.03301013653425275	0.028611806461484923	0.008242536544303743	0.029602727246781806	-0.1209773488691816	0.22325192432405952	0.83712603878826	-0.03962283003311718	0.23460277191285542	0.4565331393240029	-0.0754283781530149	0.2543511615069593	0.08094697881236128	-0.08206385718642753	0.2842950292620642	0.030535986517955558	0.07078304723373954	0.31983167228839093	0.03343798450978732	0.017920870673200428	0.24034605321624306	0.03670517619127573	-0.10017179411236439	0.13266599403215393	1.399961593309153	-0.02319290097510801	0.14456022354524492	1.625908014977775	-0.0028484475923200732	0.12397972057432446	1.5130582278833833	0.09172260483367776	-0.02048289336312065	1.312350336110823	-0.03503021319149266	-0.1224820111333246	1.0963537719572691	0.06869776002061175	-0.122513783058046	1.2952508019513131	0.10442838984140738	0.2771434358999104	1.306014266272395	-0.05047914438489182	0.36747737159078014	1.0948767726441977	0.01830041333983979	0.3716696294381082	1.2840102947020566	0.06985708070808905
389	7.78	0.12703237353421873	0.8438885024489796	-0.03687470470909864	0.027441988378021524	0.8287925033812625	-0.032560275319805154	0.007971232867099786	0.44908107929436974	-0.07277972830935953	-0.0029654612274510168	0.08105233416758846	-0.08833101053729406	-0.036272294377516064	0.035263666891646235	0.06250659302308308	-0.07252541661582763	0.036870968524212205	0.010494667080173107	0.008707127025547214	0.041382981921460935	-0.11765332504475405	0.22850476649876061	0.8298296843592163	-0.04349762168755471	0.2389974401118295	0.45195811729364965	-0.07452601071795914	0.254576309896518	0.08429578880850652	-0.08545545529312602	0.29231895243790706	0.03718459554050754	0.06553822510391132	0.32434857696530517	0.04112124807255718	0.022854577111532024	0.2418441666962164	0.04058726133318776	-0.11206418808344558	0.13223362536330904	1.3969301491730712	-0.027535385299123444	0.1416315936113649	1.6245244584573648	-0.00025764311948588874	0.12575672087638473	1.5112600103715617	0.09022220105783874	-0.019127609729141817	1.3141229936508858	-0.039632940682260136	-0.12256648376942243	1.10067501380942	0.07018717332040553	-0.12147996114221428	1.3061937142508764	0.09422727096621437	0.28004432172430643	1.3045033720910546	-0.05886051640797528	0.375007308686969	1.096610450438433	0.03410479465734321	0.38917710926368254	1.2888448661027136	0.09738494264686193
390	7.8	0.1251305760356453	0.8457384872748083	-0.03670637546518379	0.026966532630055152	0.8331718138130373	-0.0290783363631303	0.008635868374000523	0.4526668526564996	-0.06808509764867043	-0.0035920777551412225	0.0802807586319818	-0.0867026176857573	-0.03516844811791399	0.03705144429303356	0.06450365109051275	-0.07288601574407745	0.03724610589580293	0.0074245808658185905	0.007762087865692122	0.04040553401385704	-0.11595199069181146	0.2288710893772865	0.8330232507533605	-0.04412685668623378	0.23935763231261178	0.4543478210698402	-0.0735365029074818	0.2535653321916858	0.08458093259718878	-0.08253460025172879	0.295284207574149	0.03843209794745296	0.06816297752434285	0.32845587278285676	0.041073967045566734	0.022837376782909837	0.24116039031176295	0.04237747878081574	-0.11065730728900751	0.1328940286980489	1.3981524182397385	-0.03422336162659461	0.14241517940367676	1.6240395072189342	-0.0014766075703165828	0.12951447563402071	1.5113467656913784	0.09675485223890416	-0.01697508326612017	1.3113711875665992	-0.03703663219241457	-0.12196080335883921	1.1028984726931854	0.06819861409292592	-0.12984038105008044	1.3033112347335942	0.09136152322064002	0.27775903007803376	1.30445832314453	-0.060768670586979164	0.37377182415235227	1.0994288471523086	0.03346936404672092	0.3916060472359922	1.2878122630145439	0.10123370159981211
